<svg width="104" height="104" viewBox="0 0 104 104" fill="none" xmlns="http://www.w3.org/2000/svg">
<mask id="mask0_400_1659" style="mask-type:luminance" maskUnits="userSpaceOnUse" x="20" y="0" width="84" height="104">
<path d="M69.9789 0.00353437H20.1372V104H69.9789C88.3855 104 103.306 89.057 103.306 70.6222V33.3778C103.306 14.943 88.3855 0 69.9789 0V0.00353437Z" fill="white"/>
</mask>
<g mask="url(#mask0_400_1659)">
<path d="M20.1372 100.917L22.7239 104.002H20.1372V100.917Z" fill="#0C54F8"/>
<path d="M20.1372 97.832L25.307 104.003H22.7239L20.1372 100.917V97.832Z" fill="#0C54F7"/>
<path d="M20.1372 94.7461L27.8937 104.002H25.307L20.1372 97.8315V94.7461Z" fill="#0C53F6"/>
<path d="M20.1372 91.6611L30.4768 104.003H27.8937L20.1372 94.7466V91.6611Z" fill="#0C53F5"/>
<path d="M20.1372 88.5757L33.0635 104.003H30.4768L20.1372 91.6611V88.5757Z" fill="#0C52F3"/>
<path d="M20.1372 85.4902L35.6466 104.003H33.0635L20.1372 88.5757V85.4902Z" fill="#0C52F2"/>
<path d="M20.1372 82.4043L38.2332 104.002H35.6466L20.1372 85.4897V82.4043Z" fill="#0C51F1"/>
<path d="M20.1372 79.3184L40.8164 104.002H38.2332L20.1372 82.4038V79.3184Z" fill="#0C51F0"/>
<path d="M20.1372 76.2334L43.403 104.002H40.8164L20.1372 79.3188V76.2334Z" fill="#0C50EF"/>
<path d="M20.1372 73.1479L45.9862 104.002H43.403L20.1372 76.2334V73.1479Z" fill="#0C50EE"/>
<path d="M20.1372 70.064L48.5728 104.004H45.9862L20.1372 73.1494V70.064Z" fill="#0C50ED"/>
<path d="M20.1372 66.978L51.156 104.003H48.5728L20.1372 70.0635V66.978Z" fill="#0C4FEC"/>
<path d="M20.1372 63.8926L53.7426 104.003H51.156L20.1372 66.978V63.8926Z" fill="#0C4FEA"/>
<path d="M20.1372 60.8071L56.3258 104.003H53.7426L20.1372 63.8926V60.8071Z" fill="#0C4EE9"/>
<path d="M20.1372 57.7217L58.9124 104.003H56.3257L20.1372 60.8071V57.7217Z" fill="#0C4EE8"/>
<path d="M20.1372 54.6362L61.4991 104.003H58.9124L20.1372 57.7217V54.6362Z" fill="#0C4DE7"/>
<path d="M20.1372 51.5513L64.0822 104.004H61.4991L20.1372 54.6367V51.5513Z" fill="#0C4DE6"/>
<path d="M20.1372 48.4648L66.6689 104.003H64.0822L20.1372 51.5503V48.4648Z" fill="#0C4DE5"/>
<path d="M20.1372 45.3799L69.252 104.003H66.6689L20.1372 48.4653V45.3799Z" fill="#0C4CE4"/>
<path d="M20.1372 42.2939L71.8387 104.003H69.252L20.1372 45.3794V42.2939Z" fill="#0C4CE3"/>
<path d="M20.1372 39.209L74.4218 104.003H71.8387L20.1372 42.2944V39.209Z" fill="#0C4BE2"/>
<path d="M20.1372 36.1235L77.0084 104.003H74.4218L20.1372 39.209V36.1235Z" fill="#0C4BE1"/>
<path d="M20.1372 33.0376L79.5916 104.003H77.0084L20.1372 36.123V33.0376Z" fill="#0C4AE0"/>
<path d="M20.1372 29.9526L82.1782 104.003H79.5916L20.1372 33.0381V29.9526Z" fill="#0C4ADE"/>
<path d="M20.1372 26.8662L84.7614 104.002H82.1782L20.1372 29.9516V26.8662Z" fill="#0C4ADD"/>
<path d="M20.1372 23.7812L87.348 104.003H84.7614L20.1372 26.8667V23.7812Z" fill="#0C49DC"/>
<path d="M20.1372 20.6958L89.9312 104.003H87.348L20.1372 23.7812V20.6958Z" fill="#0C49DB"/>
<path d="M20.1372 17.6104L92.5178 104.003H89.9312L20.1372 20.6958V17.6104Z" fill="#0C48DA"/>
<path d="M20.1372 14.5249L94.4411 103.211L93.5024 104.003H92.5178L20.1372 17.6103V14.5249Z" fill="#0C48D9"/>
<path d="M20.1372 11.4395L95.9585 101.938L94.4411 103.211L20.1372 14.5249V11.4395Z" fill="#0C48D8"/>
<path d="M20.1372 8.35352L97.4759 100.662L95.9585 101.938L20.1372 11.4389V8.35352Z" fill="#0C47D7"/>
<path d="M20.1372 5.26807L98.9933 99.3862L97.4759 100.662L20.1372 8.3535V5.26807Z" fill="#0C47D6"/>
<path d="M20.1372 2.18408L100.507 98.1153L98.9933 99.3876L20.1372 5.26952V2.18408Z" fill="#0C46D5"/>
<path d="M20.8959 0.00292969L102.025 96.8389L100.507 98.1148L20.1372 2.18359V0.00292969H20.8959Z" fill="#0C46D4"/>
<path d="M23.4822 0.00292969L103.305 95.2803V95.761L102.024 96.8389L20.8955 0.00292969H23.4822Z" fill="#0C46D3"/>
<path d="M26.0656 0.00292969L103.305 92.1949V95.2803L23.4824 0.00292969H26.0656Z" fill="#0C45D2"/>
<path d="M28.6516 0.00292969L103.305 89.1094V92.1949L26.0649 0.00292969H28.6516Z" fill="#0C45D1"/>
<path d="M31.2345 0.00292969L103.305 86.024V89.1094L28.6514 0.00292969H31.2345Z" fill="#0C44D0"/>
<path d="M33.822 0.00292969L103.305 82.9386V86.024L31.2354 0.00292969H33.822Z" fill="#0C44CF"/>
<path d="M36.4049 0.00292969L103.305 79.8531V82.9386L33.8218 0.00292969H36.4049Z" fill="#0C44CE"/>
<path d="M38.9924 0.00292969L103.306 76.7677V79.8531L36.4058 0.00292969H38.9924Z" fill="#0C43CD"/>
<path d="M41.5788 0.00292969L103.306 73.6823V76.7677L38.9922 0.00292969H41.5788Z" fill="#0C43CC"/>
<path d="M44.1617 0.00292969L103.306 70.5968V73.6823L41.5786 0.00292969H44.1617Z" fill="#0C42CB"/>
<path d="M46.7483 0.00292969L103.305 67.5114V70.5968L44.1616 0.00292969H46.7483Z" fill="#0C42CA"/>
<path d="M49.3307 0.00292969L103.305 64.426V67.5114L46.7476 0.00292969H49.3307Z" fill="#0C42C9"/>
<path d="M51.9182 0.00292969L103.306 61.3405V64.4259L49.3315 0.00292969H51.9182Z" fill="#0C41C8"/>
<path d="M54.5016 0.00292969L103.306 58.2551V61.3405L51.9185 0.00292969H54.5016Z" fill="#0C41C7"/>
<path d="M57.0876 0.00292969L103.305 55.1697V58.2551L54.501 0.00292969H57.0876Z" fill="#0C41C6"/>
<path d="M59.6705 0.00292969L103.305 52.0842V55.1697L57.0874 0.00292969H59.6705Z" fill="#0C40C5"/>
<path d="M62.258 0.00292969L103.306 48.9988V52.0842L59.6714 0.00292969H62.258Z" fill="#0C40C4"/>
<path d="M64.8409 0.00292969L103.306 45.9169V48.9988L62.2578 0.00292969H64.8409Z" fill="#0C3FC3"/>
<path d="M67.427 0.00292969L103.305 42.8314V45.9169L64.8403 0.00292969H67.427Z" fill="#0C3FC3"/>
<path d="M70.0099 0.00292969L103.305 39.746V42.8314L67.4268 0.00292969H70.0099Z" fill="#0C3FC2"/>
<path d="M72.5974 0.00292969L103.306 36.6606V39.746L70.0107 0.00292969H72.5974Z" fill="#0C3EC1"/>
<path d="M75.1803 0.00292969L103.305 33.5751V36.6606L72.5972 0.00292969H75.1803Z" fill="#0C3EC0"/>
<path d="M77.7663 0.00292969L103.305 30.4897V33.5751L75.1797 0.00292969H77.7663Z" fill="#0C3EBF"/>
<path d="M80.3497 0.00292969L103.305 27.4043V30.4897L77.7666 0.00292969H80.3497Z" fill="#0C3EBE"/>
<path d="M82.9372 0.00292969L103.306 24.3188V27.4043L80.3506 0.00292969H82.9372Z" fill="#0C3DBE"/>
<path d="M85.5201 0.00292969L103.306 21.2334V24.3188L82.937 0.00292969H85.5201Z" fill="#0C3DBD"/>
<path d="M103.305 21.2334L85.519 0.00292969H103.305V21.2334Z" fill="#0C3DBD"/>
</g>
<path d="M88.3965 28.0864H50.3059C50.2241 28.0864 50.1577 28.1529 50.1577 28.2349V31.3875C50.1577 31.4694 50.2241 31.5359 50.3059 31.5359H88.3965C88.4784 31.5359 88.5447 31.4694 88.5447 31.3875V28.2349C88.5447 28.1529 88.4784 28.0864 88.3965 28.0864Z" fill="white"/>
<path d="M88.3965 44.3516H50.3059C50.2241 44.3516 50.1577 44.418 50.1577 44.5V47.6526C50.1577 47.7346 50.2241 47.801 50.3059 47.801H88.3965C88.4784 47.801 88.5447 47.7346 88.5447 47.6526V44.5C88.5447 44.418 88.4784 44.3516 88.3965 44.3516Z" fill="white"/>
<path d="M88.3965 60.6172H50.3059C50.2241 60.6172 50.1577 60.6836 50.1577 60.7656V63.9182C50.1577 64.0002 50.2241 64.0667 50.3059 64.0667H88.3965C88.4784 64.0667 88.5447 64.0002 88.5447 63.9182V60.7656C88.5447 60.6836 88.4784 60.6172 88.3965 60.6172Z" fill="white"/>
<path d="M88.3965 76.8813H50.3059C50.2241 76.8813 50.1577 76.9478 50.1577 77.0298V80.1824C50.1577 80.2644 50.2241 80.3308 50.3059 80.3308H88.3965C88.4784 80.3308 88.5447 80.2644 88.5447 80.1824V77.0298C88.5447 76.9478 88.4784 76.8813 88.3965 76.8813Z" fill="white"/>
<mask id="mask1_400_1659" style="mask-type:luminance" maskUnits="userSpaceOnUse" x="0" y="0" width="41" height="67">
<path d="M10.178 34.255C6.81852 36.5417 3.76605 38.6234 0.346578 40.9525C0.233655 39.6943 0.0501534 38.6376 0.0536823 37.5773C0.06074 31.5266 -0.140406 25.4653 0.212481 19.4322C0.678292 11.4624 4.65533 5.51421 11.8824 2.06121C18.8414 -1.26103 25.5639 -0.264356 31.757 4.10402C36.5634 7.49341 39.4359 12.399 39.6758 18.1458C40.0957 28.0983 40.1169 38.0933 39.7358 48.0458C39.397 56.9275 31.9088 64.7206 23.1607 66.1944C22.0456 66.3817 20.874 66.4559 19.7518 66.3393C16.9005 66.0424 14.8961 63.8724 14.8185 61.1899C14.7444 58.5568 16.1453 56.8674 19.0813 56.0651C27.2154 53.8315 29.5021 50.8839 29.5056 42.6207C29.5056 36.2449 29.5762 29.8655 29.4597 23.4931C29.4209 21.4044 29.1633 19.2343 28.5175 17.2586C27.1942 13.2013 23.5524 10.8015 19.5824 10.9711C15.8736 11.1302 12.567 13.689 11.4308 17.6545C10.8555 19.6655 10.6368 21.8179 10.5274 23.9208C10.365 27.0204 10.4462 30.1305 10.4039 33.2336C10.4003 33.5517 10.2662 33.8663 10.1745 34.255H10.178Z" fill="white"/>
</mask>
<g mask="url(#mask1_400_1659)">
<path d="M2.50299 -1.26172H-0.140137V66.4588H2.50299V-1.26172Z" fill="#0039AA"/>
<path d="M3.07498 -1.26172H2.50684V66.4588H3.07498V-1.26172Z" fill="#0039AA"/>
<path d="M3.63992 -1.26172H3.07178V66.4588H3.63992V-1.26172Z" fill="#0038A9"/>
<path d="M4.20877 -1.26172H3.64062V66.4588H4.20877V-1.26172Z" fill="#0037A9"/>
<path d="M4.77616 -1.26172H4.20801V66.4588H4.77616V-1.26172Z" fill="#0036A8"/>
<path d="M5.34451 -1.26172H4.77637V66.4588H5.34451V-1.26172Z" fill="#0035A8"/>
<path d="M5.90946 -1.26172H5.34131V66.4588H5.90946V-1.26172Z" fill="#0034A7"/>
<path d="M6.47635 -1.26172H5.9082V66.4588H6.47635V-1.26172Z" fill="#0033A7"/>
<path d="M7.0452 -1.26172H6.47705V66.4588H7.0452V-1.26172Z" fill="#0032A6"/>
<path d="M7.60965 -1.26172H7.0415V66.4588H7.60965V-1.26172Z" fill="#0031A6"/>
<path d="M8.17899 -1.26172H7.61084V66.4588H8.17899V-1.26172Z" fill="#0030A5"/>
<path d="M8.74588 -1.26172H8.17773V66.4588H8.74588V-1.26172Z" fill="#002FA5"/>
<path d="M9.31473 -1.26172H8.74658V66.4588H9.31473V-1.26172Z" fill="#002EA4"/>
<path d="M9.87918 -1.26172H9.31104V66.4588H9.87918V-1.26172Z" fill="#002DA4"/>
<path d="M10.4471 -1.26172H9.87891V66.4588H10.4471V-1.26172Z" fill="#002CA3"/>
<path d="M11.0154 -1.26172H10.4473V66.4588H11.0154V-1.26172Z" fill="#002BA3"/>
<path d="M11.5804 -1.26172H11.0122V66.4588H11.5804V-1.26172Z" fill="#002AA2"/>
<path d="M12.1472 -1.26172H11.5791V66.4588H12.1472V-1.26172Z" fill="#0029A1"/>
<path d="M12.7161 -1.26172H12.1479V66.4588H12.7161V-1.26172Z" fill="#0028A1"/>
<path d="M13.2849 -1.26172H12.7168V66.4588H13.2849V-1.26172Z" fill="#0027A0"/>
<path d="M13.8499 -1.26172H13.2817V66.4588H13.8499V-1.26172Z" fill="#0026A0"/>
<path d="M14.4168 -1.26172H13.8486V66.4588H14.4168V-1.26172Z" fill="#00259F"/>
<path d="M14.9851 -1.26172H14.417V66.4588H14.9851V-1.26172Z" fill="#00249F"/>
<path d="M15.553 -1.26172H14.9849V66.4588H15.553V-1.26172Z" fill="#00239E"/>
<path d="M16.1175 -1.26172H15.5493V66.4588H16.1175V-1.26172Z" fill="#00229E"/>
<path d="M16.6858 -1.26172H16.1177V66.4588H16.6858V-1.26172Z" fill="#00219D"/>
<path d="M17.2547 -1.26172H16.6865V66.4588H17.2547V-1.26172Z" fill="#00209D"/>
<path d="M17.8196 -1.26172H17.2515V66.4588H17.8196V-1.26172Z" fill="#001F9C"/>
<path d="M18.3865 -1.26172H17.8184V66.4588H18.3865V-1.26172Z" fill="#001E9C"/>
<path d="M18.9558 -1.26172H18.3877V66.4588H18.9558V-1.26172Z" fill="#001D9B"/>
<path d="M19.5227 -1.26172H18.9546V66.4588H19.5227V-1.26172Z" fill="#001B9A"/>
<path d="M20.0877 -1.26172H19.5195V66.4588H20.0877V-1.26172Z" fill="#001A9A"/>
<path d="M20.656 -1.26172H20.0879V66.4588H20.656V-1.26172Z" fill="#001999"/>
<path d="M21.2234 -1.26172H20.6553V66.4588H21.2234V-1.26172Z" fill="#001899"/>
<path d="M21.7889 -1.26172H21.2207V66.4588H21.7889V-1.26172Z" fill="#001798"/>
<path d="M22.3567 -1.26172H21.7886V66.4588H22.3567V-1.26172Z" fill="#001698"/>
<path d="M22.9256 -1.26172H22.3574V66.4588H22.9256V-1.26172Z" fill="#001597"/>
<path d="M23.493 -1.26172H22.9248V66.4588H23.493V-1.26172Z" fill="#001497"/>
<path d="M24.0574 -1.26172H23.4893V66.4588H24.0574V-1.26172Z" fill="#001396"/>
<path d="M24.6263 -1.26172H24.0581V66.4588H24.6263V-1.26172Z" fill="#001296"/>
<path d="M25.1936 -1.26172H24.6255V66.4588H25.1936V-1.26172Z" fill="#001195"/>
<path d="M25.7625 -1.26172H25.1943V66.4588H25.7625V-1.26172Z" fill="#001095"/>
<path d="M26.3264 -1.26172H25.7583V66.4588H26.3264V-1.26172Z" fill="#000F94"/>
<path d="M26.8953 -1.26172H26.3271V66.4588H26.8953V-1.26172Z" fill="#000E94"/>
<path d="M27.4632 -1.26172H26.895V66.4588H27.4632V-1.26172Z" fill="#000D93"/>
<path d="M28.0276 -1.26172H27.4595V66.4588H28.0276V-1.26172Z" fill="#000C92"/>
<path d="M28.5965 -1.26172H28.0283V66.4588H28.5965V-1.26172Z" fill="#000B92"/>
<path d="M29.1634 -1.26172H28.5952V66.4588H29.1634V-1.26172Z" fill="#000A91"/>
<path d="M29.7327 -1.26172H29.1646V66.4588H29.7327V-1.26172Z" fill="#000991"/>
<path d="M30.2972 -1.26172H29.729V66.4588H30.2972V-1.26172Z" fill="#000890"/>
<path d="M30.866 -1.26172H30.2979V66.4588H30.866V-1.26172Z" fill="#000790"/>
<path d="M31.4329 -1.26172H30.8647V66.4588H31.4329V-1.26172Z" fill="#00068F"/>
<path d="M31.9973 -1.26172H31.4292V66.4588H31.9973V-1.26172Z" fill="#00058F"/>
<path d="M32.5662 -1.26172H31.998V66.4588H32.5662V-1.26172Z" fill="#00048E"/>
<path d="M33.1336 -1.26172H32.5654V66.4588H33.1336V-1.26172Z" fill="#00038E"/>
<path d="M33.7024 -1.26172H33.1343V66.4588H33.7024V-1.26172Z" fill="#00028D"/>
<path d="M34.2669 -1.26172H33.6987V66.4588H34.2669V-1.26172Z" fill="#00018D"/>
<path d="M34.8343 -1.26172H34.2661V66.4588H34.8343V-1.26172Z" fill="#00008C"/>
<path d="M40.0158 -1.26172H34.8354V66.4588H40.0158V-1.26172Z" fill="#00008C"/>
</g>
<mask id="mask2_400_1659" style="mask-type:luminance" maskUnits="userSpaceOnUse" x="0" y="38" width="41" height="66">
<path d="M39.7615 62.9784C40.6578 71.6763 40.979 79.8829 39.4827 87.8669C36.7373 102.555 18.8777 108.832 7.15123 99.5724C2.60251 95.9816 0.513426 90.9346 0.305223 85.4565C-0.0723664 75.67 -0.128828 65.8483 0.301694 56.0653C0.735744 46.2117 10.2566 37.7012 19.5517 38.1182C23.624 38.302 25.7554 40.7513 25.0532 44.4269C24.5874 46.8762 22.8123 47.8693 20.6491 48.449C12.9386 50.5059 10.5742 53.5136 10.5107 61.5506C10.4613 67.9264 10.4401 74.3023 10.5601 80.6781C10.5989 82.774 10.8565 84.944 11.4741 86.9338C12.6916 90.8498 16.6051 93.55 20.3457 93.4263C24.0192 93.3062 27.6187 90.8003 28.4903 86.796C29.309 83.0214 29.5313 79.0418 29.4501 75.1646C29.3725 71.5844 29.8136 68.9549 33.6954 67.527C35.728 66.7778 37.3301 64.8587 39.765 62.9749L39.7615 62.9784Z" fill="white"/>
</mask>
<g mask="url(#mask2_400_1659)">
<path d="M2.52795 37.7051H-0.132812V108.833H2.52795V37.7051Z" fill="#0039AA"/>
<path d="M3.10304 37.7051H2.52783V108.833H3.10304V37.7051Z" fill="#0039AA"/>
<path d="M3.67872 37.7051H3.10352V108.833H3.67872V37.7051Z" fill="#0038A9"/>
<path d="M4.25343 37.7051H3.67822V108.833H4.25343V37.7051Z" fill="#0037A9"/>
<path d="M4.82911 37.7051H4.25391V108.833H4.82911V37.7051Z" fill="#0036A8"/>
<path d="M5.40479 37.7051H4.82959V108.833H5.40479V37.7051Z" fill="#0035A8"/>
<path d="M5.97608 37.7051H5.40088V108.833H5.97608V37.7051Z" fill="#0034A7"/>
<path d="M6.55079 37.7051H5.97559V108.833H6.55079V37.7051Z" fill="#0033A7"/>
<path d="M7.12599 37.7051H6.55078V108.833H7.12599V37.7051Z" fill="#0032A6"/>
<path d="M7.70118 37.7051H7.12598V108.833H7.70118V37.7051Z" fill="#0031A6"/>
<path d="M8.27393 37.7051H7.69873V108.833H8.27393V37.7051Z" fill="#0030A5"/>
<path d="M8.84767 37.7051H8.27246V108.833H8.84767V37.7051Z" fill="#002FA5"/>
<path d="M9.42384 37.7051H8.84863V108.833H9.42384V37.7051Z" fill="#002EA4"/>
<path d="M9.99757 37.7051H9.42236V108.833H9.99757V37.7051Z" fill="#002DA4"/>
<path d="M10.5737 37.7051H9.99854V108.833H10.5737V37.7051Z" fill="#002CA3"/>
<path d="M11.1455 37.7051H10.5703V108.833H11.1455V37.7051Z" fill="#002BA3"/>
<path d="M11.7212 37.7051H11.146V108.833H11.7212V37.7051Z" fill="#002AA2"/>
<path d="M12.2954 37.7051H11.7202V108.833H12.2954V37.7051Z" fill="#0029A1"/>
<path d="M12.8711 37.7051H12.2959V108.833H12.8711V37.7051Z" fill="#0028A1"/>
<path d="M13.4424 37.7051H12.8672V108.833H13.4424V37.7051Z" fill="#0027A0"/>
<path d="M14.0186 37.7051H13.4434V108.833H14.0186V37.7051Z" fill="#0026A0"/>
<path d="M14.5928 37.7051H14.0176V108.833H14.5928V37.7051Z" fill="#00259F"/>
<path d="M15.1685 37.7051H14.5933V108.833H15.1685V37.7051Z" fill="#00249F"/>
<path d="M15.7402 37.7051H15.165V108.833H15.7402V37.7051Z" fill="#00239E"/>
<path d="M16.3159 37.7051H15.7407V108.833H16.3159V37.7051Z" fill="#00229E"/>
<path d="M16.8901 37.7051H16.3149V108.833H16.8901V37.7051Z" fill="#00219D"/>
<path d="M17.4658 37.7051H16.8906V108.833H17.4658V37.7051Z" fill="#00209D"/>
<path d="M18.042 37.7051H17.4668V108.833H18.042V37.7051Z" fill="#001F9C"/>
<path d="M18.6138 37.7051H18.0386V108.833H18.6138V37.7051Z" fill="#001E9C"/>
<path d="M19.1875 37.7051H18.6123V108.833H19.1875V37.7051Z" fill="#001D9B"/>
<path d="M19.7637 37.7051H19.1885V108.833H19.7637V37.7051Z" fill="#001B9A"/>
<path d="M20.3394 37.7051H19.7642V108.833H20.3394V37.7051Z" fill="#001A9A"/>
<path d="M20.9102 37.7051H20.335V108.833H20.9102V37.7051Z" fill="#001999"/>
<path d="M21.4854 37.7051H20.9102V108.833H21.4854V37.7051Z" fill="#001899"/>
<path d="M22.0606 37.7051H21.4854V108.833H22.0606V37.7051Z" fill="#001798"/>
<path d="M22.6353 37.7051H22.0601V108.833H22.6353V37.7051Z" fill="#001698"/>
<path d="M23.2109 37.7051H22.6357V108.833H23.2109V37.7051Z" fill="#001597"/>
<path d="M23.7822 37.7051H23.207V108.833H23.7822V37.7051Z" fill="#001497"/>
<path d="M24.3579 37.7051H23.7827V108.833H24.3579V37.7051Z" fill="#001396"/>
<path d="M24.9326 37.7051H24.3574V108.833H24.9326V37.7051Z" fill="#001296"/>
<path d="M25.5083 37.7051H24.9331V108.833H25.5083V37.7051Z" fill="#001195"/>
<path d="M26.0796 37.7051H25.5044V108.833H26.0796V37.7051Z" fill="#001095"/>
<path d="M26.6553 37.7051H26.0801V108.833H26.6553V37.7051Z" fill="#000F94"/>
<path d="M27.2295 37.7051H26.6543V108.833H27.2295V37.7051Z" fill="#000E94"/>
<path d="M27.8052 37.7051H27.23V108.833H27.8052V37.7051Z" fill="#000D93"/>
<path d="M28.3809 37.7051H27.8057V108.833H28.3809V37.7051Z" fill="#000C92"/>
<path d="M28.9526 37.7051H28.3774V108.833H28.9526V37.7051Z" fill="#000B92"/>
<path d="M29.5269 37.7051H28.9517V108.833H29.5269V37.7051Z" fill="#000A91"/>
<path d="M30.103 37.7051H29.5278V108.833H30.103V37.7051Z" fill="#000991"/>
<path d="M30.6782 37.7051H30.103V108.833H30.6782V37.7051Z" fill="#000890"/>
<path d="M31.25 37.7051H30.6748V108.833H31.25V37.7051Z" fill="#000790"/>
<path d="M31.8247 37.7051H31.2495V108.833H31.8247V37.7051Z" fill="#00068F"/>
<path d="M32.3999 37.7051H31.8247V108.833H32.3999V37.7051Z" fill="#00058F"/>
<path d="M32.9756 37.7051H32.4004V108.833H32.9756V37.7051Z" fill="#00048E"/>
<path d="M33.5503 37.7051H32.9751V108.833H33.5503V37.7051Z" fill="#00038E"/>
<path d="M34.1216 37.7051H33.5464V108.833H34.1216V37.7051Z" fill="#00028D"/>
<path d="M34.6978 37.7051H34.1226V108.833H34.6978V37.7051Z" fill="#00018D"/>
<path d="M35.2715 37.7051H34.6963V108.833H35.2715V37.7051Z" fill="#00008C"/>
<path d="M40.5199 37.7051H35.2725V108.833H40.5199V37.7051Z" fill="#00008C"/>
<path d="M40.9758 37.7051H40.5171V108.833H40.9758V37.7051Z" fill="#00008C"/>
</g>
</svg>
