<svg width="186" height="28" viewBox="0 0 186 28" fill="none" xmlns="http://www.w3.org/2000/svg">
<path d="M0 27.4495V23.4231H10.6337C11.8759 23.4231 12.9955 23.2396 13.9955 22.8741C14.994 22.5086 15.8341 21.9596 16.5173 21.2271C17.199 20.4946 17.7223 19.574 18.0888 18.4635C18.4537 17.3531 18.6369 16.0654 18.6369 14.602C18.6369 13.1385 18.4537 11.8944 18.0888 10.7964C17.7223 9.69842 17.199 8.78397 16.5173 8.05147C15.8341 7.31896 14.994 6.76998 13.9955 6.40451C12.9955 6.03903 11.8759 5.85552 10.6337 5.85552H0V1.8291H10.3418C12.4117 1.8291 14.2455 2.09815 15.8418 2.6347C17.4381 3.17124 18.7782 3.97684 19.8605 5.04992C20.9459 6.12457 21.7736 7.46049 22.3466 9.05768C22.9196 10.6564 23.2053 12.5164 23.2053 14.6393C23.2053 16.7622 22.9196 18.6222 22.3466 20.2209C21.7736 21.8197 20.9459 23.1556 19.8605 24.2287C18.7767 25.3033 17.4366 26.1074 15.8418 26.6439C14.2455 27.1804 12.4132 27.4495 10.3418 27.4495H0ZM0 1.83066H4.38516V27.4495H0V1.8291V1.83066Z" fill="#0050FA"/>
<path d="M27.8996 11.0527C29.5689 9.41813 32.1326 8.6001 35.5923 8.6001C39.0519 8.6001 41.6591 9.41813 43.3393 11.0527C45.021 12.6872 45.861 15.1024 45.861 18.2983C45.861 21.4943 45.021 23.9111 43.3393 25.5456C41.6576 27.1801 39.0768 27.9981 35.5923 27.9981C32.1078 27.9981 29.5689 27.1801 27.8996 25.5456C26.2303 23.9111 25.3965 21.4958 25.3965 18.2983C25.3965 15.1008 26.2303 12.6872 27.8996 11.0527ZM31.2071 22.6187C32.1574 23.5938 33.6186 24.0821 35.5923 24.0821C37.5659 24.0821 39.0706 23.5938 40.0333 22.6187C40.9945 21.6436 41.4759 20.2035 41.4759 18.2999C41.4759 16.3963 40.9945 14.9578 40.0333 13.9811C39.0706 13.006 37.5907 12.5177 35.5923 12.5177C33.5938 12.5177 32.0658 13.006 31.1528 13.9811C30.2397 14.9578 29.7832 16.3963 29.7832 18.2999C29.7832 20.2035 30.2584 21.6436 31.2087 22.6187H31.2071Z" fill="#333333"/>
<path d="M61.8116 9.20391C62.9187 9.60671 63.8442 10.1681 64.588 10.8882C65.3318 11.6083 65.897 12.4434 66.2883 13.3952C66.6781 14.347 66.8738 15.3718 66.8738 16.4698H63.0367C63.0367 15.8835 62.9327 15.3532 62.7262 14.8773C62.5181 14.4014 62.1967 13.9862 61.7572 13.6331C61.3193 13.2801 60.7836 13.0048 60.1501 12.8104C59.515 12.616 58.7727 12.518 57.9202 12.518C57.1174 12.518 56.3736 12.616 55.6919 12.8104C55.0087 13.0064 54.431 13.3361 53.9559 13.7995C53.4807 14.263 53.1096 14.8555 52.841 15.574C52.5723 16.2941 52.4388 17.179 52.4388 18.2272C52.4388 19.2754 52.5847 20.2521 52.8782 21.0079C53.1702 21.7653 53.5723 22.3687 54.0832 22.8197C54.5956 23.2707 55.2043 23.5942 55.9109 23.7902C56.6174 23.9861 57.3721 24.0825 58.1764 24.0825C59.0538 24.0825 59.8022 23.9861 60.4234 23.7902C61.0445 23.5958 61.5569 23.3205 61.9591 22.9675C62.3613 22.6144 62.6656 22.1992 62.8721 21.7233C63.0787 21.2474 63.1827 20.7171 63.1827 20.1308H66.984C66.984 21.2287 66.807 22.2536 66.4545 23.2054C66.102 24.1572 65.5601 24.9939 64.8287 25.7124C64.0989 26.4324 63.1656 26.9939 62.0336 27.3967C60.9001 27.7995 59.5662 28.0001 58.032 28.0001C54.7664 28.0001 52.2882 27.182 50.5956 25.5475C48.9015 23.913 48.0552 21.4978 48.0552 18.3003C48.0552 15.1028 48.8409 12.658 50.4124 11.0359C51.9838 9.41387 54.4994 8.60205 57.959 8.60205C59.4202 8.60205 60.7044 8.80267 61.8147 9.20547L61.8116 9.20391Z" fill="#333333"/>
<path d="M69.4125 11.6016C69.765 10.9189 70.3007 10.3513 71.0196 9.90025C71.737 9.44924 72.6268 9.11954 73.6874 8.91114C74.7464 8.7043 75.984 8.6001 77.3971 8.6001C80.5632 8.6001 82.8894 9.13042 84.377 10.1926C85.8615 11.2533 86.6068 12.9795 86.6068 15.3714H82.7698C82.7698 14.7369 82.6425 14.219 82.3863 13.8162C82.13 13.4134 81.7465 13.09 81.2356 12.8458C80.7232 12.6016 80.0834 12.4243 79.3163 12.3155C78.5492 12.2051 77.6657 12.1506 76.6672 12.1506C75.7899 12.1506 75.0834 12.2051 74.5476 12.3155C74.0119 12.4259 73.5911 12.5721 73.2867 12.754C72.9824 12.9376 72.7759 13.1382 72.6656 13.3575C72.5554 13.5767 72.501 13.7976 72.501 14.0169C72.501 14.2859 72.6051 14.5285 72.8116 14.7494C73.0197 14.9687 73.3473 15.1833 73.7992 15.3901C74.2495 15.5985 74.8287 15.7929 75.5352 15.9764C76.2418 16.1599 77.1067 16.3481 78.13 16.5441C79.4452 16.7634 80.6331 16.9826 81.6937 17.2019C82.7527 17.4212 83.6673 17.7322 84.4344 18.135C85.2015 18.5378 85.7916 19.0744 86.2062 19.7447C86.6208 20.4165 86.8273 21.2999 86.8273 22.3979C86.8273 24.4243 86.1084 25.8628 84.672 26.7166C83.2341 27.5705 81.1269 27.9981 78.3489 27.9981C75.0352 27.9981 72.6175 27.4678 71.0957 26.4056C69.5724 25.345 68.8115 23.6187 68.8115 21.2268H72.6485C72.6485 21.8364 72.7945 22.3496 73.088 22.7633C73.3799 23.1786 73.8007 23.5083 74.3489 23.7509C74.897 23.995 75.5601 24.1723 76.3396 24.2812C77.1191 24.3901 77.9716 24.4461 78.8986 24.4461C79.6781 24.4461 80.3427 24.3978 80.8909 24.2999C81.439 24.2034 81.8831 24.0681 82.2248 23.8971C82.5648 23.726 82.8102 23.5254 82.9561 23.2936C83.1021 23.0619 83.1751 22.8115 83.1751 22.544C83.1751 22.1288 83.0524 21.7944 82.8102 21.5378C82.5664 21.2812 82.1953 21.0806 81.6952 20.9344C81.1952 20.7882 80.5741 20.6607 79.8319 20.5503C79.0881 20.4399 78.2418 20.2999 77.2915 20.1288C76.2914 19.9826 75.293 19.7867 74.2945 19.5425C73.2961 19.2983 72.3877 18.9562 71.5724 18.5176C70.7557 18.0791 70.105 17.5052 69.6174 16.7976C69.1299 16.09 68.8861 15.1879 68.8861 14.09C68.8861 13.1149 69.0631 12.2844 69.4156 11.6016H69.4125Z" fill="#333333"/>
<path d="M92.3427 24.7041C90.1253 22.5082 89.0166 19.1412 89.0166 14.6031C89.0166 10.065 90.0523 6.71046 92.1238 4.53784C94.1937 2.36678 97.3723 1.28125 101.661 1.28125C103.635 1.28125 105.388 1.45232 106.924 1.79291C108.458 2.13506 109.748 2.68404 110.796 3.43987C111.845 4.19725 112.643 5.17237 113.191 6.36832C113.739 7.56427 114.012 9.01527 114.012 10.7229H109.81C109.81 9.60158 109.567 8.69179 109.079 7.99661C108.591 7.30144 107.958 6.75867 107.18 6.36832C106.4 5.97796 105.517 5.71513 104.531 5.58138C103.545 5.44764 102.551 5.37921 101.552 5.37921C100.091 5.37921 98.8537 5.5565 97.8444 5.90953C96.8319 6.26412 96.0105 6.81932 95.3785 7.57515C94.7449 8.33254 94.2884 9.28432 94.0089 10.4305C93.7278 11.5782 93.5881 12.9686 93.5881 14.6031C93.5881 17.8488 94.3365 20.2096 95.835 21.6855C97.3335 23.1629 99.6301 23.9001 102.723 23.9001C103.601 23.9001 104.472 23.8395 105.337 23.7166C106.202 23.5937 106.975 23.3636 107.657 23.0214C108.338 22.6808 108.893 22.1801 109.32 21.5206C109.745 20.8612 109.959 19.9826 109.959 18.8846H114.161C114.161 20.5922 113.888 22.0261 113.34 23.1847C112.792 24.3433 112.011 25.2765 111.001 25.9841C109.989 26.6917 108.765 27.2049 107.329 27.5222C105.891 27.8394 104.307 27.9981 102.577 27.9981C97.9732 27.9981 94.5633 26.9001 92.3458 24.7041H92.3427Z" fill="#0050FA"/>
<path d="M116.716 27.4493V0H120.918V27.4493H116.716ZM131.076 27.4493V17.6049C131.076 16.8242 131.003 16.1228 130.857 15.5007C130.711 14.8786 130.461 14.3483 130.109 13.9082C129.755 13.4696 129.261 13.1275 128.629 12.8833C127.994 12.6391 127.191 12.5178 126.217 12.5178C124.464 12.5178 123.141 12.9999 122.253 13.9642C121.363 14.9284 120.919 16.3607 120.919 18.2643V18.7044H119.421V18.3016C119.421 16.8631 119.561 15.5442 119.842 14.3498C120.121 13.1539 120.571 12.1306 121.193 11.2752C121.814 10.4214 122.629 9.762 123.64 9.29855C124.651 8.8351 125.888 8.60338 127.35 8.60338C128.69 8.60338 129.853 8.76201 130.839 9.07927C131.826 9.39653 132.648 9.90197 133.305 10.5987C133.963 11.2939 134.449 12.1912 134.766 13.2892C135.083 14.3872 135.241 15.7044 135.241 17.241V27.4524H131.075L131.076 27.4493Z" fill="#333333"/>
<path d="M152.491 21.0433C152.491 21.9717 152.43 22.8551 152.308 23.6964C152.185 24.5378 151.893 25.2765 151.43 25.9111C150.966 26.5456 150.267 27.051 149.329 27.4305C148.391 27.8084 147.106 27.9981 145.474 27.9981C144.304 27.9981 143.225 27.9126 142.241 27.7415C141.253 27.5705 140.407 27.2656 139.7 26.8271C138.994 26.3885 138.439 25.8022 138.037 25.0712C137.635 24.3387 137.433 23.4118 137.433 22.289C137.433 21.3621 137.61 20.5689 137.963 19.9095C138.315 19.2517 138.834 18.6903 139.515 18.2268C140.197 17.7634 141.037 17.3979 142.037 17.1288C143.036 16.8598 144.182 16.6529 145.472 16.5067L153.146 15.7385L153.511 18.74L146.093 19.4725C145.483 19.5456 144.924 19.6436 144.411 19.7649C143.901 19.8878 143.449 20.0526 143.059 20.2594C142.669 20.4678 142.365 20.7291 142.146 21.0464C141.927 21.3636 141.817 21.754 141.817 22.2174C141.817 22.5596 141.89 22.8644 142.036 23.1319C142.182 23.401 142.419 23.6327 142.748 23.8271C143.078 24.023 143.509 24.1754 144.047 24.2843C144.582 24.3932 145.239 24.4492 146.02 24.4492C147.141 24.4492 148.079 24.3341 148.834 24.1008C149.589 23.8691 150.197 23.5891 150.66 23.2594C151.123 22.9297 151.458 22.5643 151.665 22.1615C151.871 21.7587 151.975 21.387 151.975 21.0448H152.486L152.491 21.0433ZM151.467 13.8147C151.151 13.3388 150.749 12.9795 150.261 12.7354C149.773 12.4912 149.238 12.3326 148.654 12.2595C148.068 12.1864 147.52 12.1506 147.009 12.1506C146.498 12.1506 145.961 12.1817 145.402 12.2424C144.842 12.3046 144.331 12.4446 143.868 12.6638C143.405 12.8831 143.022 13.2128 142.717 13.6514C142.411 14.0915 142.261 14.7012 142.261 15.4819H138.424C138.424 14.2377 138.624 13.1817 139.026 12.3155C139.428 11.4492 140 10.7416 140.744 10.1926C141.486 9.64364 142.394 9.24084 143.466 8.98423C144.537 8.72762 145.731 8.6001 147.048 8.6001C148.582 8.6001 149.918 8.73384 151.05 9.00289C152.183 9.27194 153.127 9.70429 153.882 10.3015C154.637 10.9002 155.204 11.6981 155.582 12.6996C155.96 13.6996 156.149 14.9329 156.149 16.3963V27.4491H151.947V15.7742C151.947 14.9453 151.789 14.2921 151.472 13.8162L151.467 13.8147Z" fill="#333333"/>
<path d="M159.417 1.51782C159.842 1.06681 160.542 0.841309 161.518 0.841309C162.493 0.841309 163.192 1.06681 163.619 1.51782C164.044 1.97038 164.258 2.65934 164.258 3.58624C164.258 4.51314 164.044 5.2021 163.619 5.65466C163.192 6.10722 162.491 6.33117 161.518 6.33117C160.544 6.33117 159.842 6.10567 159.417 5.65466C158.99 5.20365 158.777 4.5147 158.777 3.58624C158.777 2.65778 158.99 1.97038 159.417 1.51782ZM159.435 9.1492H163.639V27.4493H159.435V9.1492Z" fill="#333333"/>
<path d="M167.29 27.4494V9.14939H171.494V27.4494H167.29ZM181.652 27.4494V17.605C181.652 16.8243 181.579 16.1229 181.433 15.5008C181.287 14.8788 181.036 14.3484 180.683 13.9083C180.331 13.4697 179.837 13.1276 179.203 12.8834C178.57 12.6393 177.765 12.518 176.792 12.518C175.037 12.518 173.716 13.0001 172.827 13.9643C171.938 14.9285 171.494 16.3609 171.494 18.2644V18.7045H169.995V18.3018C169.995 16.8632 170.135 15.5444 170.414 14.35C170.694 13.154 171.146 12.1307 171.767 11.2754C172.388 10.4215 173.203 9.76214 174.216 9.29869C175.225 8.83524 176.463 8.60352 177.924 8.60352C179.264 8.60352 180.427 8.76215 181.413 9.07941C182.399 9.39667 183.222 9.90211 183.879 10.5988C184.537 11.294 185.023 12.1914 185.342 13.2893C185.657 14.3873 185.817 15.7046 185.817 17.2411V27.4526H181.65L181.652 27.4494Z" fill="#333333"/>
</svg>
